<svg xmlns="http://www.w3.org/2000/svg" width="37.937" height="46.476" viewBox="0 0 37.937 46.476">
  <g id="DangKyTuyenSinh-ico" transform="translate(-47.031)">
    <g id="Group_254" data-name="Group 254" transform="translate(51.688 6.986)">
      <g id="Group_253" data-name="Group 253">
        <path id="Path_549" data-name="Path 549" d="M103.723,79.289a.728.728,0,0,0-.728.728,1.6,1.6,0,1,1-1.6-1.6.728.728,0,0,0,0-1.455,3.056,3.056,0,1,0,3.056,3.056A.728.728,0,0,0,103.723,79.289Z" transform="translate(-98.338 -76.96)" fill="#fff"/>
      </g>
    </g>
    <g id="Group_256" data-name="Group 256" transform="translate(51.688 15.524)">
      <g id="Group_255" data-name="Group 255">
        <path id="Path_550" data-name="Path 550" d="M103.723,173.351a.728.728,0,0,0-.728.728,1.6,1.6,0,1,1-1.6-1.6.728.728,0,1,0,0-1.455,3.056,3.056,0,1,0,3.056,3.056A.728.728,0,0,0,103.723,173.351Z" transform="translate(-98.338 -171.022)" fill="#fff"/>
      </g>
    </g>
    <g id="Group_258" data-name="Group 258" transform="translate(59.45 19.405)">
      <g id="Group_257" data-name="Group 257" transform="translate(0)">
        <path id="Path_551" data-name="Path 551" d="M190.01,213.779h-5.433a.728.728,0,1,0,0,1.455h5.433a.728.728,0,0,0,0-1.455Z" transform="translate(-183.849 -213.779)" fill="#fff"/>
      </g>
    </g>
    <g id="Group_260" data-name="Group 260" transform="translate(59.45 16.3)">
      <g id="Group_259" data-name="Group 259" transform="translate(0)">
        <path id="Path_552" data-name="Path 552" d="M190.01,179.574h-5.433a.728.728,0,1,0,0,1.455h5.433a.728.728,0,0,0,0-1.455Z" transform="translate(-183.849 -179.574)" fill="#fff"/>
      </g>
    </g>
    <g id="Group_262" data-name="Group 262" transform="translate(59.45 27.943)">
      <g id="Group_261" data-name="Group 261" transform="translate(0)">
        <path id="Path_553" data-name="Path 553" d="M188.458,307.841h-3.881a.728.728,0,1,0,0,1.455h3.881a.728.728,0,0,0,0-1.455Z" transform="translate(-183.849 -307.841)" fill="#fff"/>
      </g>
    </g>
    <g id="Group_264" data-name="Group 264" transform="translate(59.45 24.839)">
      <g id="Group_263" data-name="Group 263" transform="translate(0)">
        <path id="Path_554" data-name="Path 554" d="M190.01,273.637h-5.433a.728.728,0,1,0,0,1.455h5.433a.728.728,0,0,0,0-1.455Z" transform="translate(-183.849 -273.637)" fill="#fff"/>
      </g>
    </g>
    <g id="Group_266" data-name="Group 266" transform="translate(59.45 10.867)">
      <g id="Group_265" data-name="Group 265" transform="translate(0)">
        <path id="Path_555" data-name="Path 555" d="M197,119.716H184.577a.728.728,0,1,0,0,1.455H197a.728.728,0,0,0,0-1.455Z" transform="translate(-183.849 -119.716)" fill="#fff"/>
      </g>
    </g>
    <g id="Group_268" data-name="Group 268" transform="translate(59.45 7.762)">
      <g id="Group_267" data-name="Group 267" transform="translate(0)">
        <path id="Path_556" data-name="Path 556" d="M193.891,85.511h-9.315a.728.728,0,0,0,0,1.455h9.315a.728.728,0,1,0,0-1.455Z" transform="translate(-183.849 -85.511)" fill="#fff"/>
      </g>
    </g>
    <g id="Group_270" data-name="Group 270" transform="translate(51.688 24.062)">
      <g id="Group_269" data-name="Group 269">
        <path id="Path_557" data-name="Path 557" d="M103.723,267.414a.728.728,0,0,0-.728.728,1.6,1.6,0,1,1-1.6-1.6.728.728,0,1,0,0-1.455,3.056,3.056,0,1,0,3.056,3.056A.728.728,0,0,0,103.723,267.414Z" transform="translate(-98.338 -265.085)" fill="#fff"/>
      </g>
    </g>
    <g id="Group_272" data-name="Group 272" transform="translate(47.031)">
      <g id="Group_271" data-name="Group 271">
        <path id="Path_558" data-name="Path 558" d="M75.7,0H49.311a2.283,2.283,0,0,0-2.28,2.28v32.6a2.283,2.283,0,0,0,2.28,2.28h13.2a.728.728,0,1,0,0-1.455h-13.2a.826.826,0,0,1-.825-.825V2.28a.826.826,0,0,1,.825-.825H75.7a.826.826,0,0,1,.825.825V26.343a.728.728,0,1,0,1.455,0V2.28A2.283,2.283,0,0,0,75.7,0Z" transform="translate(-47.031)" fill="#fff"/>
      </g>
    </g>
    <g id="Group_274" data-name="Group 274" transform="translate(64.497 16.301)">
      <g id="Group_273" data-name="Group 273" transform="translate(0)">
        <path id="Path_559" data-name="Path 559" d="M257.527,192.787a2.685,2.685,0,0,0-1.887.53,2.651,2.651,0,0,0-1.994-1.307,2.685,2.685,0,0,0-1.887.53,2.651,2.651,0,0,0-1.994-1.307,2.688,2.688,0,0,0-1.485.279v-9.267a2.669,2.669,0,0,0-2.941-2.655,2.753,2.753,0,0,0-2.4,2.765v9.291l-2.139,2.139a4.58,4.58,0,0,0-1.227,4.315L241.2,205a6.137,6.137,0,0,0,6,4.75h6.563a6.168,6.168,0,0,0,6.161-6.161v-8.039A2.753,2.753,0,0,0,257.527,192.787Zm.94,10.8a4.711,4.711,0,0,1-4.706,4.706H247.2a4.688,4.688,0,0,1-4.581-3.628l-1.624-6.9a3.134,3.134,0,0,1,.84-2.952l1.11-1.11v2.512a.728.728,0,0,0,1.455,0V182.357a1.287,1.287,0,0,1,1.085-1.317,1.213,1.213,0,0,1,1.34,1.206v12.807a.728.728,0,1,0,1.455,0v-1.164a1.213,1.213,0,0,1,1.34-1.206A1.287,1.287,0,0,1,250.705,194v1.83a.728.728,0,1,0,1.455,0v-1.164a1.213,1.213,0,0,1,1.34-1.206,1.287,1.287,0,0,1,1.085,1.317v1.83a.728.728,0,0,0,1.455,0v-1.164a1.213,1.213,0,0,1,1.34-1.206,1.287,1.287,0,0,1,1.085,1.317v8.04Z" transform="translate(-239.452 -179.578)" fill="#fff"/>
      </g>
    </g>
  </g>
</svg>
