<svg xmlns="http://www.w3.org/2000/svg" xmlns:xlink="http://www.w3.org/1999/xlink" width="186" height="67" viewBox="0 0 186 67">
  <defs>
    <filter id="Rectangle_98" x="0" y="0" width="186" height="67" filterUnits="userSpaceOnUse">
      <feOffset dy="3" input="SourceAlpha"/>
      <feGaussianBlur stdDeviation="3" result="blur"/>
      <feFlood flood-opacity="0.29"/>
      <feComposite operator="in" in2="blur"/>
      <feComposite in="SourceGraphic"/>
    </filter>
  </defs>
  <g id="dang-ky" transform="translate(-421 -329)">
    <g transform="matrix(1, 0, 0, 1, 421, 329)" filter="url(#Rectangle_98)">
      <rect id="Rectangle_98-2" data-name="Rectangle 98" width="168" height="49" rx="8" transform="translate(9 6)" fill="#0486d2"/>
    </g>
    <path id="Path_590" data-name="Path 590" d="M1.723-7.116H.021V-8.511h1.7v-6.521H6.255a8.209,8.209,0,0,1,4.04.943,6.621,6.621,0,0,1,2.646,2.666,8.044,8.044,0,0,1,.923,3.9,8.013,8.013,0,0,1-.923,3.917A6.656,6.656,0,0,1,10.295-.964,8.213,8.213,0,0,1,6.255,0H1.723ZM6.255-1.7A5.8,5.8,0,0,0,10.479-3.24a5.707,5.707,0,0,0,1.579-4.286,5.68,5.68,0,0,0-1.579-4.266A5.8,5.8,0,0,0,6.255-13.33H3.507v4.819H7.362v1.395H3.507V-1.7Zm14.561-13.33h2.01L28.547,0H26.578l-1.5-4.143H18.56L17.063,0H15.094Zm3.65,9.208-2.01-5.414-.595-1.62h-.082l-.595,1.62-2.01,5.414ZM20.528-16.55a2.61,2.61,0,0,1-1-.964,2.374,2.374,0,0,1-.369-1.312H20.61a1.263,1.263,0,0,0,.328.9,1.145,1.145,0,0,0,.9.369,1.1,1.1,0,0,0,.861-.369,1.263,1.263,0,0,0,.328-.9h1.436a2.374,2.374,0,0,1-.369,1.313,2.706,2.706,0,0,1-.964.964,2.631,2.631,0,0,1-1.292.328A2.671,2.671,0,0,1,20.528-16.55Zm10.008,1.518H32.71L40.257-3.076h.082l-.082-2.892v-9.064h1.784V0H40.2L32.32-12.53h-.082l.082,2.892V0H30.536ZM52.233.328A7.757,7.757,0,0,1,48.337-.7a7.553,7.553,0,0,1-2.851-2.83,7.831,7.831,0,0,1-1.046-4A7.864,7.864,0,0,1,45.486-11.5a7.554,7.554,0,0,1,2.851-2.83,7.786,7.786,0,0,1,3.9-1.046,8.265,8.265,0,0,1,3.117.595,6.568,6.568,0,0,1,2.4,1.661L56.5-11.854a4.572,4.572,0,0,0-1.846-1.354,6.156,6.156,0,0,0-2.4-.472A5.963,5.963,0,0,0,49.3-12.9a5.869,5.869,0,0,0-2.215,2.153,6.113,6.113,0,0,0-.841,3.22,6.152,6.152,0,0,0,.841,3.24A6.078,6.078,0,0,0,49.3-2.133a6.013,6.013,0,0,0,2.953.759,6.108,6.108,0,0,0,2.522-.472A5.531,5.531,0,0,0,56.54-3.1a4.7,4.7,0,0,0,.882-1.415,6.778,6.778,0,0,0,.41-1.825H52.274V-8h7.219a7.292,7.292,0,0,1,.1,1.087A8.755,8.755,0,0,1,59.165-4.2a6,6,0,0,1-1.415,2.3A7.2,7.2,0,0,1,52.233.328ZM67.1-15.032h1.784v7.916h.082l6.768-7.916h2.276v.082L72.454-8.531,78.422-.082V0H76.248L71.265-7.157,68.886-4.409V0H67.1Zm16.857,8.08-5.086-8.08h2.092l3.835,6.3h.082l3.794-6.3h2.071l-5,8.08V0H83.959Zm1.148-11.956h1.969l-1.5,2.666H84.021Z" transform="translate(467 368)" fill="#fff"/>
  </g>
</svg>
