<svg xmlns="http://www.w3.org/2000/svg" width="14.447" height="14.447" viewBox="0 0 14.447 14.447">
  <path id="DienThoai-ico" d="M16.644,13.032a9.118,9.118,0,0,1-2.865-.457.819.819,0,0,0-.819.193l-1.766,1.766A12.075,12.075,0,0,1,5.905,9.244L7.671,7.47a.771.771,0,0,0,.2-.8A9.118,9.118,0,0,1,7.414,3.8a.8.8,0,0,0-.8-.8H3.8a.8.8,0,0,0-.8.8A13.643,13.643,0,0,0,16.644,17.447a.8.8,0,0,0,.8-.8V13.835A.8.8,0,0,0,16.644,13.032Zm-.8-2.809h1.605A7.224,7.224,0,0,0,10.223,3V4.605A5.614,5.614,0,0,1,15.841,10.223Zm-3.21,0h1.605A4.014,4.014,0,0,0,10.223,6.21V7.816A2.4,2.4,0,0,1,12.631,10.223Z" transform="translate(-3 -3)" fill="#fff"/>
</svg>
