<svg id="GopY-ico" xmlns="http://www.w3.org/2000/svg" width="52.034" height="52.031" viewBox="0 0 52.034 52.031">
  <g id="Group_14" data-name="Group 14" transform="translate(6.097)">
    <g id="Group_13" data-name="Group 13" transform="translate(0 0)">
      <path id="Path_132" data-name="Path 132" d="M104.592,5.664,100.28,1.353a4.578,4.578,0,0,0-6.467,0L65.157,30.009a1.537,1.537,0,0,0-.11.123c-.305.381-.075-.047-4.965,13.785a1.524,1.524,0,0,0,1.945,1.945c14.255-5.04,13.554-4.72,13.908-5.075l28.656-28.656A4.57,4.57,0,0,0,104.592,5.664ZM86.268,13.209l2.156,2.156L70.546,33.242l-2.156-2.156ZM64.02,41.924l2.846-8.05,5.2,5.2Zm10.838-4.37L72.7,35.4,90.579,17.521l2.156,2.156ZM94.891,17.521l-6.467-6.467L90.579,8.9l6.467,6.467Zm7.545-7.545L99.2,13.209,92.735,6.742l3.234-3.234a1.526,1.526,0,0,1,2.156,0l4.311,4.312A1.523,1.523,0,0,1,102.436,9.976Z" transform="translate(-59.995 -0.015)" fill="#fff"/>
    </g>
  </g>
  <g id="Group_16" data-name="Group 16" transform="translate(0 48.983)">
    <g id="Group_15" data-name="Group 15">
      <path id="Path_133" data-name="Path 133" d="M50.506,481.986H1.524a1.524,1.524,0,1,0,0,3.049H50.506a1.524,1.524,0,1,0,0-3.049Z" transform="translate(0 -481.986)" fill="#fff"/>
    </g>
  </g>
</svg>
