<svg xmlns="http://www.w3.org/2000/svg" width="46" height="46" viewBox="0 0 46 46">
  <g id="HuongDanDangKy-ico" transform="translate(0 0.001)">
    <path id="Path_583" data-name="Path 583" d="M43.3,12.376v-1.64a.674.674,0,0,0-.674-.674H40.744V6.468a.674.674,0,0,0-.837-.654l-16.99,4.247H21.776L23.5,5.468a.674.674,0,0,0-.394-.868l-.04-.015.663-1.766A1.572,1.572,0,0,0,22.812.795L20.961.1a1.572,1.572,0,0,0-2.025.919l-.663,1.766-.213-.08a.674.674,0,0,0-.868.394l-2.614,6.962H8.687a.674.674,0,1,0,0,1.348h5.386l-1.617,4.306h0L7.37,29.26a.675.675,0,0,0-.043.228l-.207,5.8A1.6,1.6,0,0,0,9.9,36.331l3.672-4.515h0a.676.676,0,0,0,.107-.187L21.27,11.409h1.056V39.081H4.043V11.41H5.785a.674.674,0,1,0,0-1.348H3.369a.674.674,0,0,0-.674.674v1.64a3.375,3.375,0,0,0-2.7,3.3V42.63A3.373,3.373,0,0,0,3.369,46H42.631A3.373,3.373,0,0,0,46,42.63V15.677a3.375,3.375,0,0,0-2.7-3.3ZM20.2,1.493a.225.225,0,0,1,.289-.131l1.85.695a.225.225,0,0,1,.131.289l-.663,1.766-2.271-.853ZM18.218,4.2l.211.079h0L21.963,5.61h0L22,5.625,17.739,16.98l-3.785-1.421L18.218,4.2ZM13.481,16.821l3.785,1.421-2.937,7.822-3.785-1.421,2.937-7.822ZM10.07,25.9l3.785,1.421-1.2,3.2L8.869,29.1ZM8.879,35.449a.251.251,0,0,1-.41-.154l.172-4.839,3.293,1.236ZM39.4,34.961,23.674,38.892V11.262L39.4,7.331ZM23.674,40.429H41.957v1.348H23.674Zm20.979,2.2a2.024,2.024,0,0,1-2.021,2.021H3.369A2.024,2.024,0,0,1,1.348,42.63V15.677A2.025,2.025,0,0,1,2.7,13.771V42.45a.674.674,0,0,0,.674.674h13.86a.674.674,0,1,0,0-1.348H4.043V40.429H22.326v1.348h-2.18a.674.674,0,1,0,0,1.348H42.631a.674.674,0,0,0,.674-.674V20.1a.674.674,0,0,0-1.348,0V39.081H28.474l11.76-2.94a.674.674,0,0,0,.51-.654V11.41h1.213v5.8a.674.674,0,1,0,1.348,0V13.771a2.025,2.025,0,0,1,1.348,1.906Z" transform="translate(0 0)" fill="#fff"/>
    <path id="Path_584" data-name="Path 584" d="M140.24,396.6a.674.674,0,1,0,0-1.348h-6.92a.674.674,0,1,0,0,1.348Z" transform="translate(-120.729 -359.743)" fill="#fff"/>
  </g>
</svg>
