<svg id="KetQuaTuyenSinh-ico" xmlns="http://www.w3.org/2000/svg" width="44.27" height="44.27" viewBox="0 0 44.27 44.27">
  <path id="Path_578" data-name="Path 578" d="M163.947,24.34h-1.427V20.421a16.963,16.963,0,0,0-10.246-15.57V1.686A1.688,1.688,0,0,0,150.589,0h-10.03a1.688,1.688,0,0,0-1.686,1.686V4.851a16.94,16.94,0,0,0-3.492,2.031.648.648,0,0,0,.781,1.036,15.645,15.645,0,0,1,3.029-1.789,1.686,1.686,0,0,0,1.369.7h10.03a1.685,1.685,0,0,0,1.369-.7,15.667,15.667,0,0,1,9.266,14.293V41.027a1.948,1.948,0,0,1-1.945,1.945H137.306a.648.648,0,1,0,0,1.3h21.972a3.246,3.246,0,0,0,3.242-3.242V39.644h1.945a3.246,3.246,0,0,0,3.242-3.242V28.1A3.765,3.765,0,0,0,163.947,24.34ZM150.589,5.534h-10.03a.39.39,0,0,1-.383-.319c0-.013,0-.025-.005-.038s0-.022,0-.033V1.686a.39.39,0,0,1,.389-.389h10.03a.39.39,0,0,1,.389.389V5.145c0,.011,0,.022,0,.032s0,.025-.005.038A.39.39,0,0,1,150.589,5.534Zm13.359,20.1a2.467,2.467,0,0,1,2.464,2.464v.648h-1.081a.648.648,0,1,0,0,1.3h1.081v1.3h-3.891V25.637Zm.519,12.71h-1.945V32.64h3.891V36.4A1.948,1.948,0,0,1,164.466,38.347Z" transform="translate(-123.439)" fill="#fff"/>
  <path id="Path_579" data-name="Path 579" d="M109,280.217v9.624a4.285,4.285,0,0,0,4.28,4.28h16.86a4.285,4.285,0,0,0,4.28-4.28v-9.624a3.246,3.246,0,0,0-3.242-3.242h-1.134a.648.648,0,1,0,0,1.3h1.134a1.948,1.948,0,0,1,1.945,1.945v1.814a2.121,2.121,0,0,1-2.118,2.118h-18.59a2.121,2.121,0,0,1-2.118-2.118v-1.814a1.948,1.948,0,0,1,1.945-1.945h14.982a.648.648,0,1,0,0-1.3H112.242A3.246,3.246,0,0,0,109,280.217Zm3.415,5.229h18.59a3.4,3.4,0,0,0,2.118-.738v5.134a2.986,2.986,0,0,1-2.983,2.983H113.28a2.986,2.986,0,0,1-2.983-2.983v-5.134A3.4,3.4,0,0,0,112.415,285.446Z" transform="translate(-99.575 -253.027)" fill="#fff"/>
  <path id="Path_580" data-name="Path 580" d="M11.03,133.8H8.43a1.948,1.948,0,0,1-1.945-1.945V111.248a15.588,15.588,0,0,1,4.259-10.731.648.648,0,1,0-.944-.89,16.879,16.879,0,0,0-4.612,11.621v3.919H3.761A3.765,3.765,0,0,0,0,118.927v8.3a3.246,3.246,0,0,0,3.242,3.242H5.188v1.383A3.246,3.246,0,0,0,8.43,135.1h2.6a.648.648,0,1,0,0-1.3ZM3.761,116.463H5.188v5.707H1.3v-1.3H2.378a.648.648,0,1,0,0-1.3H1.3v-.648A2.467,2.467,0,0,1,3.761,116.463Zm-.519,12.71A1.948,1.948,0,0,1,1.3,127.228v-3.761H5.188v5.707Z" transform="translate(0 -90.827)" fill="#fff"/>
  <path id="Path_581" data-name="Path 581" d="M232.148,317.787a.648.648,0,1,0,0,1.3h2.94a.648.648,0,1,0,0-1.3Z" transform="translate(-211.484 -290.31)" fill="#fff"/>
  <path id="Path_582" data-name="Path 582" d="M192.509,117.53a2.576,2.576,0,0,0,1.827-.756l3.425-3.426a2.584,2.584,0,0,0,0-3.654l-3.426-3.426a2.587,2.587,0,0,0-3.654,0l-3.425,3.426a2.584,2.584,0,0,0,0,3.654l3.426,3.426A2.576,2.576,0,0,0,192.509,117.53Zm-4.712-6.008a1.278,1.278,0,0,1,.377-.91l3.425-3.426a1.288,1.288,0,0,1,1.82,0l3.425,3.426h0a1.287,1.287,0,0,1,0,1.82l-3.425,3.426a1.288,1.288,0,0,1-1.82,0l-3.426-3.426A1.279,1.279,0,0,1,187.8,111.522Z" transform="translate(-170.374 -96.391)" fill="#fff"/>
</svg>
