<svg xmlns="http://www.w3.org/2000/svg" width="52.269" height="47.242" viewBox="0 0 52.269 47.242">
  <g id="QuyDinhTuyeSinh-ico" transform="translate(0 -24.622)">
    <path id="Path_574" data-name="Path 574" d="M.864,42l8.79,4.079-2.34,8.751a1.745,1.745,0,0,0,.7,1.892l1.283.873a29.929,29.929,0,0,0,27.558,3.2v1.294a2.438,2.438,0,0,0-1.668,2.31v1.529a.9.9,0,0,0,.094.4l-.694,3.844a1,1,0,0,0,.515,1.062,5.352,5.352,0,0,0,5.039,0,1,1,0,0,0,.515-1.062c0,.01-.011-.058-.694-3.844a.9.9,0,0,0,.094-.4V64.4a2.438,2.438,0,0,0-1.668-2.31V60.156a34.327,34.327,0,0,0,5.862-3.437,1.745,1.745,0,0,0,.7-1.891l-.847-3.167a.766.766,0,1,0-1.479.4l.847,3.167a.212.212,0,0,1-.086.23,34.269,34.269,0,0,1-5,3.019V48.037l2.815-1.306.485,1.815a.766.766,0,1,0,1.479-.4l-.554-2.073L51.4,42a1.477,1.477,0,0,0,.865-1.353c0-3.308,0-3.1,0-3.135A1.478,1.478,0,0,0,51.4,36.2L26.763,24.761a1.489,1.489,0,0,0-1.257,0L8.684,32.567a.766.766,0,1,0,.645,1.389l16.805-7.8L50.684,37.549,37.667,43.59c-.066-.046.659.392-11.138-6.7a.766.766,0,1,0-.789,1.313l10.253,6.161-9.858,4.575L1.585,37.549l4.472-2.075a.766.766,0,1,0-.645-1.389L.865,36.2A1.48,1.48,0,0,0,0,37.55v3.095A1.476,1.476,0,0,0,.864,42Zm35.3,28.047.58-3.213H38.5l.58,3.213a3.822,3.822,0,0,1-2.911,0Zm2.983.4h0ZM38.527,65.3h-1.8v-.9a.9.9,0,0,1,1.8,0ZM50.738,39.213v1.406L38.39,46.348c0-1.047,0-1.385,0-1.406ZM25.506,50.338a1.49,1.49,0,0,0,1.257,0l10.1-4.685v1.406L26.135,52.035l-8.212-3.811a.766.766,0,1,0-.645,1.389l8.229,3.818a1.488,1.488,0,0,0,1.257,0l10.1-4.685V59.155a28.214,28.214,0,0,1-26.7-2.829l-1.283-.873a.212.212,0,0,1-.085-.23l2.271-8.492,2.915,1.353a.766.766,0,1,0,.645-1.389L1.531,40.619V39.213Z" transform="translate(0)" fill="#fff"/>
  </g>
</svg>
