<svg xmlns="http://www.w3.org/2000/svg" width="43.339" height="43.347" viewBox="0 0 43.339 43.347">
  <g id="ThongTinTuyenSinh-ico" transform="translate(-0.048 0)">
    <path id="Path_572" data-name="Path 572" d="M226.735,242.314a1.865,1.865,0,1,0,2.637,0,1.867,1.867,0,0,0-2.637,0Zm1.739.9a.595.595,0,1,1-.841,0A.6.6,0,0,1,228.475,243.211Z" transform="translate(-206.998 -221.301)" fill="#fff"/>
    <path id="Path_573" data-name="Path 573" d="M11.392,43.347a2.14,2.14,0,0,0,1.573-.582c.128-.128-.225.319,5.438-7.074v.071a.7.7,0,0,0,1.087.575l1.468-1a.174.174,0,0,1,.2,0l1.467,1a.7.7,0,0,0,1.087-.574V34.09l.718,1.51a.7.7,0,0,0,1.229.052l.9-1.534a.174.174,0,0,1,.179-.085l1.755.273a.7.7,0,0,0,.735-.986l-3.062-6.438a2.264,2.264,0,0,1,.862-.738l.69-.339a.99.99,0,0,0,.488-1.24c1.73-1.614,3.554-3.157,5.428-4.592,9.7-7.431,9.054-6.924,9.183-7.053.817-.817.764-2.289-.146-4.158a3.461,3.461,0,0,0-.389-1.872.635.635,0,1,0-1.157.524c.393.869.3,1.247.235,1.311l-.011.009c-.769.561-2.572.132-4.7-1.09l.28-.28a.863.863,0,0,0,.008-1.205,10.541,10.541,0,0,1-2.033-2.819c-.391-.866-.3-1.243-.233-1.307a.159.159,0,0,1,.037-.027.634.634,0,0,0,.087-.029c.51-.1,2.193.511,4.153,2.471.207.207.408.421.6.636a.635.635,0,1,0,.952-.84c-.207-.234-.426-.467-.652-.693-1.7-1.7-3.815-3-5.2-2.825-1.873-.913-3.347-.968-4.165-.15a1.838,1.838,0,0,0-.188.22c-7.387,9.645-7.292,9.538-8.211,10.667a.635.635,0,0,0,.985.8c.942-1.158.929-1.159,6.98-9.06a7.538,7.538,0,0,0,.376,1.083,18.96,18.96,0,0,0,5.25,6.522c-7.885,6.039-9.154,6.95-11.516,9.006a3.969,3.969,0,0,0-2.929-1.462,24.161,24.161,0,0,1-1.56-2.2c.468-.5.931-1.008,1.383-1.518a.635.635,0,1,0-.95-.842c-.413.467-.838.933-1.266,1.392a.99.99,0,0,0-1.24.488l-.339.69A2.274,2.274,0,0,1,16,17.493l-.415.157a.989.989,0,0,0-.559,1.316c-1.668,1.544-3.423,3.024-5.225,4.4C.166,30.752.748,30.3.622,30.422c-.774.774-.765,2.162.028,3.907C2.526,38.461,8.112,43.347,11.392,43.347Zm10.478-9.06a1.437,1.437,0,0,0-1.628,0l-.57.388V31.051a.635.635,0,0,0-1.27,0V33.6c-6.709,8.759-6.3,8.228-6.335,8.265-.47.469-2.053.173-4.152-1.231L18.4,26.943v1.145a.635.635,0,0,0,1.27,0V26.064a4,4,0,0,0,2.767,0v8.612Zm5.056-1.508a1.437,1.437,0,0,0-1.47.7l-.348.6-1.4-2.94V25.3c.071-.063.136-.126.2-.191l3.7,7.777Zm-1.362-7.147-.837-1.76q.053-.126.1-.255c.6.453,1.228.879,1.867,1.276a3.82,3.82,0,0,0-1.127.74ZM41.81,9.974c.434,1.13.351,1.8.1,2.048-.309.309-1.16.309-2.446-.269ZM35.739,6.751l-.206.206A26.169,26.169,0,0,1,32.64,4.7l.934-1.23A10.749,10.749,0,0,0,35.739,6.751ZM33.413,1.578,31.708,3.823l-.2-.2c-.407-1.017-.464-1.833-.145-2.153.248-.248.918-.332,2.048.1Zm.561,5.837a14.967,14.967,0,0,0,5.512,2.73l-1.252.951A19.269,19.269,0,0,1,33.974,7.414Zm2.733,4.194a11.387,11.387,0,0,0,3.472,1.748l-7.324,5.609c-1.944,1.489-3.834,3.091-5.624,4.767a24.189,24.189,0,0,1-2.2-1.559,4,4,0,0,0-.246-1.232c2.441-2.141,3.591-2.954,11.92-9.333ZM22.973,24.248a2.711,2.711,0,1,1,0-3.834A2.714,2.714,0,0,1,22.973,24.248Zm-6.52-5.568a3.54,3.54,0,0,0,1.929-1.754l.113-.23c.4.64.823,1.264,1.276,1.867A3.978,3.978,0,0,0,17.523,20.5c-.421-.582-.807-1.167-1.171-1.776ZM1.52,31.32c.037-.037-.543.411,9.058-6.943,1.763-1.351,3.483-2.8,5.122-4.3.432.671.9,1.325,1.389,1.952a3.974,3.974,0,0,0,1.118,3.084L6.888,39.889a20.078,20.078,0,0,1-1.794-1.6C1.875,35.074.827,32.013,1.52,31.32Z" transform="translate(0 0)" fill="#fff"/>
  </g>
</svg>
